<svg xmlns="http://www.w3.org/2000/svg" xmlns:xlink="http://www.w3.org/1999/xlink" width="500" zoomAndPan="magnify" viewBox="0 0 375 374.999991" height="500" preserveAspectRatio="xMidYMid meet" version="1.0"><defs><g/><clipPath id="b52daac3f8"><path d="M 118 96.601562 L 331 96.601562 L 331 310 L 118 310 Z M 118 96.601562 " clip-rule="nonzero"/></clipPath><clipPath id="cc50bcf52f"><path d="M 70 58 L 138 58 L 138 128 L 70 128 Z M 70 58 " clip-rule="nonzero"/></clipPath><clipPath id="10349c7730"><path d="M -24.101562 150.367188 L 166.050781 -32.925781 L 258.726562 63.21875 L 68.574219 246.511719 Z M -24.101562 150.367188 " clip-rule="nonzero"/></clipPath><clipPath id="e95f0c6ec0"><path d="M -24.101562 150.367188 L 166.050781 -32.925781 L 258.726562 63.21875 L 68.574219 246.511719 Z M -24.101562 150.367188 " clip-rule="nonzero"/></clipPath><clipPath id="9c0db92b6b"><path d="M -24.101562 150.367188 L 166.050781 -32.925781 L 258.726562 63.21875 L 68.574219 246.511719 Z M -24.101562 150.367188 " clip-rule="nonzero"/></clipPath><clipPath id="78cdab06b1"><path d="M 69 97 L 132 97 L 132 136 L 69 136 Z M 69 97 " clip-rule="nonzero"/></clipPath><clipPath id="1aed8cc451"><path d="M -24.101562 150.367188 L 166.050781 -32.925781 L 258.726562 63.21875 L 68.574219 246.511719 Z M -24.101562 150.367188 " clip-rule="nonzero"/></clipPath><clipPath id="a7586c4ade"><path d="M -24.101562 150.367188 L 166.050781 -32.925781 L 258.726562 63.21875 L 68.574219 246.511719 Z M -24.101562 150.367188 " clip-rule="nonzero"/></clipPath><clipPath id="d5e074e561"><path d="M -24.101562 150.367188 L 166.050781 -32.925781 L 258.726562 63.21875 L 68.574219 246.511719 Z M -24.101562 150.367188 " clip-rule="nonzero"/></clipPath><clipPath id="73edbdd92c"><path d="M 57 160 L 127 160 L 127 180 L 57 180 Z M 57 160 " clip-rule="nonzero"/></clipPath><clipPath id="c462c05816"><path d="M -24.101562 150.367188 L 166.050781 -32.925781 L 258.726562 63.21875 L 68.574219 246.511719 Z M -24.101562 150.367188 " clip-rule="nonzero"/></clipPath><clipPath id="7ea98850b5"><path d="M -24.101562 150.367188 L 166.050781 -32.925781 L 258.726562 63.21875 L 68.574219 246.511719 Z M -24.101562 150.367188 " clip-rule="nonzero"/></clipPath><clipPath id="bf96212bc5"><path d="M -24.101562 150.367188 L 166.050781 -32.925781 L 258.726562 63.21875 L 68.574219 246.511719 Z M -24.101562 150.367188 " clip-rule="nonzero"/></clipPath><clipPath id="d9b4b64b3f"><path d="M 179 60 L 219 60 L 219 123 L 179 123 Z M 179 60 " clip-rule="nonzero"/></clipPath><clipPath id="d1dab50e2a"><path d="M -24.101562 150.367188 L 166.050781 -32.925781 L 258.726562 63.21875 L 68.574219 246.511719 Z M -24.101562 150.367188 " clip-rule="nonzero"/></clipPath><clipPath id="8063f95b1c"><path d="M -24.101562 150.367188 L 166.050781 -32.925781 L 258.726562 63.21875 L 68.574219 246.511719 Z M -24.101562 150.367188 " clip-rule="nonzero"/></clipPath><clipPath id="69e4089aeb"><path d="M -24.101562 150.367188 L 166.050781 -32.925781 L 258.726562 63.21875 L 68.574219 246.511719 Z M -24.101562 150.367188 " clip-rule="nonzero"/></clipPath><clipPath id="8feeaa6406"><path d="M 136 48 L 156 48 L 156 118 L 136 118 Z M 136 48 " clip-rule="nonzero"/></clipPath><clipPath id="f30570387e"><path d="M -24.101562 150.367188 L 166.050781 -32.925781 L 258.726562 63.21875 L 68.574219 246.511719 Z M -24.101562 150.367188 " clip-rule="nonzero"/></clipPath><clipPath id="3478e0d9a6"><path d="M -24.101562 150.367188 L 166.050781 -32.925781 L 258.726562 63.21875 L 68.574219 246.511719 Z M -24.101562 150.367188 " clip-rule="nonzero"/></clipPath><clipPath id="6f76d59be7"><path d="M -24.101562 150.367188 L 166.050781 -32.925781 L 258.726562 63.21875 L 68.574219 246.511719 Z M -24.101562 150.367188 " clip-rule="nonzero"/></clipPath><clipPath id="7c2a932694"><path d="M 78 129 L 127 129 L 127 145 L 78 145 Z M 78 129 " clip-rule="nonzero"/></clipPath><clipPath id="eda5c8fd5b"><path d="M -24.101562 150.367188 L 166.050781 -32.925781 L 258.726562 63.21875 L 68.574219 246.511719 Z M -24.101562 150.367188 " clip-rule="nonzero"/></clipPath><clipPath id="06d6c81770"><path d="M -24.101562 150.367188 L 166.050781 -32.925781 L 258.726562 63.21875 L 68.574219 246.511719 Z M -24.101562 150.367188 " clip-rule="nonzero"/></clipPath><clipPath id="d4c56defec"><path d="M -24.101562 150.367188 L 166.050781 -32.925781 L 258.726562 63.21875 L 68.574219 246.511719 Z M -24.101562 150.367188 " clip-rule="nonzero"/></clipPath><clipPath id="b6102322c7"><path d="M 30 150 L 125 150 L 125 155 L 30 155 Z M 30 150 " clip-rule="nonzero"/></clipPath><clipPath id="9649e363a4"><path d="M -24.101562 150.367188 L 166.050781 -32.925781 L 258.726562 63.21875 L 68.574219 246.511719 Z M -24.101562 150.367188 " clip-rule="nonzero"/></clipPath><clipPath id="dcac060e5f"><path d="M -24.101562 150.367188 L 166.050781 -32.925781 L 258.726562 63.21875 L 68.574219 246.511719 Z M -24.101562 150.367188 " clip-rule="nonzero"/></clipPath><clipPath id="217f823d1a"><path d="M -24.101562 150.367188 L 166.050781 -32.925781 L 258.726562 63.21875 L 68.574219 246.511719 Z M -24.101562 150.367188 " clip-rule="nonzero"/></clipPath><clipPath id="8a3162e5df"><path d="M 85 170 L 131 170 L 131 196 L 85 196 Z M 85 170 " clip-rule="nonzero"/></clipPath><clipPath id="cc0d2c69e7"><path d="M -24.101562 150.367188 L 166.050781 -32.925781 L 258.726562 63.21875 L 68.574219 246.511719 Z M -24.101562 150.367188 " clip-rule="nonzero"/></clipPath><clipPath id="5762a30d64"><path d="M -24.101562 150.367188 L 166.050781 -32.925781 L 258.726562 63.21875 L 68.574219 246.511719 Z M -24.101562 150.367188 " clip-rule="nonzero"/></clipPath><clipPath id="e2db21faf3"><path d="M -24.101562 150.367188 L 166.050781 -32.925781 L 258.726562 63.21875 L 68.574219 246.511719 Z M -24.101562 150.367188 " clip-rule="nonzero"/></clipPath><clipPath id="82f53d0566"><path d="M 67 178 L 137 178 L 137 246 L 67 246 Z M 67 178 " clip-rule="nonzero"/></clipPath><clipPath id="fc769bd049"><path d="M -24.101562 150.367188 L 166.050781 -32.925781 L 258.726562 63.21875 L 68.574219 246.511719 Z M -24.101562 150.367188 " clip-rule="nonzero"/></clipPath><clipPath id="f5b9eab3a0"><path d="M -24.101562 150.367188 L 166.050781 -32.925781 L 258.726562 63.21875 L 68.574219 246.511719 Z M -24.101562 150.367188 " clip-rule="nonzero"/></clipPath><clipPath id="211843bd6f"><path d="M -24.101562 150.367188 L 166.050781 -32.925781 L 258.726562 63.21875 L 68.574219 246.511719 Z M -24.101562 150.367188 " clip-rule="nonzero"/></clipPath><clipPath id="736669369b"><path d="M 188 61 L 258 61 L 258 129 L 188 129 Z M 188 61 " clip-rule="nonzero"/></clipPath><clipPath id="03d37111e3"><path d="M -24.101562 150.367188 L 166.050781 -32.925781 L 258.726562 63.21875 L 68.574219 246.511719 Z M -24.101562 150.367188 " clip-rule="nonzero"/></clipPath><clipPath id="0a5336e4ba"><path d="M -24.101562 150.367188 L 166.050781 -32.925781 L 258.726562 63.21875 L 68.574219 246.511719 Z M -24.101562 150.367188 " clip-rule="nonzero"/></clipPath><clipPath id="96fc0c2227"><path d="M -24.101562 150.367188 L 166.050781 -32.925781 L 258.726562 63.21875 L 68.574219 246.511719 Z M -24.101562 150.367188 " clip-rule="nonzero"/></clipPath><clipPath id="72d54a556d"><path d="M 171 69 L 187 69 L 187 118 L 171 118 Z M 171 69 " clip-rule="nonzero"/></clipPath><clipPath id="661f45545f"><path d="M -24.101562 150.367188 L 166.050781 -32.925781 L 258.726562 63.21875 L 68.574219 246.511719 Z M -24.101562 150.367188 " clip-rule="nonzero"/></clipPath><clipPath id="c5ecae7863"><path d="M -24.101562 150.367188 L 166.050781 -32.925781 L 258.726562 63.21875 L 68.574219 246.511719 Z M -24.101562 150.367188 " clip-rule="nonzero"/></clipPath><clipPath id="8e14b4caba"><path d="M -24.101562 150.367188 L 166.050781 -32.925781 L 258.726562 63.21875 L 68.574219 246.511719 Z M -24.101562 150.367188 " clip-rule="nonzero"/></clipPath><clipPath id="a491b1588d"><path d="M 161 21 L 165 21 L 165 116 L 161 116 Z M 161 21 " clip-rule="nonzero"/></clipPath><clipPath id="029b9a418a"><path d="M -24.101562 150.367188 L 166.050781 -32.925781 L 258.726562 63.21875 L 68.574219 246.511719 Z M -24.101562 150.367188 " clip-rule="nonzero"/></clipPath><clipPath id="1fedc1c69d"><path d="M -24.101562 150.367188 L 166.050781 -32.925781 L 258.726562 63.21875 L 68.574219 246.511719 Z M -24.101562 150.367188 " clip-rule="nonzero"/></clipPath><clipPath id="706e90f220"><path d="M -24.101562 150.367188 L 166.050781 -32.925781 L 258.726562 63.21875 L 68.574219 246.511719 Z M -24.101562 150.367188 " clip-rule="nonzero"/></clipPath><clipPath id="613f781bfe"><path d="M 120 76 L 146 76 L 146 122 L 120 122 Z M 120 76 " clip-rule="nonzero"/></clipPath><clipPath id="e8419e8983"><path d="M -24.101562 150.367188 L 166.050781 -32.925781 L 258.726562 63.21875 L 68.574219 246.511719 Z M -24.101562 150.367188 " clip-rule="nonzero"/></clipPath><clipPath id="4361ec7073"><path d="M -24.101562 150.367188 L 166.050781 -32.925781 L 258.726562 63.21875 L 68.574219 246.511719 Z M -24.101562 150.367188 " clip-rule="nonzero"/></clipPath><clipPath id="1c9c4fa2e9"><path d="M -24.101562 150.367188 L 166.050781 -32.925781 L 258.726562 63.21875 L 68.574219 246.511719 Z M -24.101562 150.367188 " clip-rule="nonzero"/></clipPath><clipPath id="fa52628162"><path d="M 160.746094 152 L 273 152 L 273 309.242188 L 160.746094 309.242188 Z M 160.746094 152 " clip-rule="nonzero"/></clipPath></defs><g clip-path="url(#b52daac3f8)"><path fill="#ffbd59" d="M 330.265625 201.667969 L 287.476562 158.882812 L 287.476562 125.042969 C 287.476562 123.847656 286.503906 122.875 285.304688 122.875 C 284.105469 122.875 283.132812 123.847656 283.132812 125.042969 L 283.132812 154.542969 L 226.050781 97.453125 C 225.203125 96.605469 223.828125 96.605469 222.980469 97.453125 L 118.765625 201.667969 C 117.917969 202.515625 117.917969 203.890625 118.765625 204.738281 C 119.1875 205.164062 119.742188 205.375 120.296875 205.375 C 120.855469 205.375 121.410156 205.164062 121.835938 204.742188 L 144.179688 182.398438 L 144.179688 307.417969 C 144.179688 308.617188 145.152344 309.589844 146.351562 309.589844 L 302.671875 309.589844 C 303.871094 309.589844 304.84375 308.617188 304.84375 307.417969 L 304.84375 182.394531 L 327.191406 204.738281 C 327.617188 205.164062 328.171875 205.375 328.726562 205.375 C 329.28125 205.375 329.839844 205.164062 330.265625 204.742188 C 331.109375 203.890625 331.109375 202.519531 330.265625 201.667969 Z M 300.503906 305.25 L 148.523438 305.25 L 148.523438 178.050781 L 224.511719 102.0625 L 300.503906 178.050781 Z M 300.503906 305.25 " fill-opacity="1" fill-rule="nonzero"/></g><g clip-path="url(#cc50bcf52f)"><g clip-path="url(#10349c7730)"><g clip-path="url(#e95f0c6ec0)"><g clip-path="url(#9c0db92b6b)"><path fill="#db9700" d="M 134.910156 127.847656 L 70.988281 58.730469 L 137.710938 125.152344 Z M 134.910156 127.847656 " fill-opacity="1" fill-rule="nonzero"/></g></g></g></g><g clip-path="url(#78cdab06b1)"><g clip-path="url(#1aed8cc451)"><g clip-path="url(#a7586c4ade)"><g clip-path="url(#d5e074e561)"><path fill="#db9700" d="M 129.136719 135.917969 L 69.703125 97.824219 L 131.246094 132.421875 Z M 129.136719 135.917969 " fill-opacity="1" fill-rule="nonzero"/></g></g></g></g><g clip-path="url(#73edbdd92c)"><g clip-path="url(#c462c05816)"><g clip-path="url(#7ea98850b5)"><g clip-path="url(#bf96212bc5)"><path fill="#db9700" d="M 126.359375 164.546875 L 57.238281 179.730469 L 125.382812 160.59375 Z M 126.359375 164.546875 " fill-opacity="1" fill-rule="nonzero"/></g></g></g></g><g clip-path="url(#d9b4b64b3f)"><g clip-path="url(#d1dab50e2a)"><g clip-path="url(#8063f95b1c)"><g clip-path="url(#69e4089aeb)"><path fill="#db9700" d="M 179.96875 120.238281 L 218.285156 60.671875 L 183.457031 122.335938 Z M 179.96875 120.238281 " fill-opacity="1" fill-rule="nonzero"/></g></g></g></g><g clip-path="url(#8feeaa6406)"><g clip-path="url(#f30570387e)"><g clip-path="url(#3478e0d9a6)"><g clip-path="url(#6f76d59be7)"><path fill="#db9700" d="M 151.34375 117.5625 L 136.410156 48.507812 L 155.304688 116.574219 Z M 151.34375 117.5625 " fill-opacity="1" fill-rule="nonzero"/></g></g></g></g><g clip-path="url(#7c2a932694)"><g clip-path="url(#eda5c8fd5b)"><g clip-path="url(#06d6c81770)"><g clip-path="url(#d4c56defec)"><path fill="#db9700" d="M 125.871094 144.515625 L 78.148438 129.394531 L 126.65625 141.796875 Z M 125.871094 144.515625 " fill-opacity="1" fill-rule="nonzero"/></g></g></g></g><g clip-path="url(#b6102322c7)"><g clip-path="url(#9649e363a4)"><g clip-path="url(#dcac060e5f)"><g clip-path="url(#217f823d1a)"><path fill="#db9700" d="M 124.75 154.78125 L 30.503906 151.28125 L 124.828125 150.902344 Z M 124.75 154.78125 " fill-opacity="1" fill-rule="nonzero"/></g></g></g></g><g clip-path="url(#8a3162e5df)"><g clip-path="url(#cc0d2c69e7)"><g clip-path="url(#5762a30d64)"><g clip-path="url(#e2db21faf3)"><path fill="#db9700" d="M 130.117188 172.917969 L 85.558594 196 L 128.753906 170.445312 Z M 130.117188 172.917969 " fill-opacity="1" fill-rule="nonzero"/></g></g></g></g><g clip-path="url(#82f53d0566)"><g clip-path="url(#fc769bd049)"><g clip-path="url(#f5b9eab3a0)"><g clip-path="url(#211843bd6f)"><path fill="#db9700" d="M 136.585938 180.941406 L 67.226562 245.109375 L 133.898438 178.152344 Z M 136.585938 180.941406 " fill-opacity="1" fill-rule="nonzero"/></g></g></g></g><g clip-path="url(#736669369b)"><g clip-path="url(#03d37111e3)"><g clip-path="url(#0a5336e4ba)"><g clip-path="url(#96fc0c2227)"><path fill="#db9700" d="M 188.019531 125.984375 L 257.378906 61.816406 L 190.707031 128.773438 Z M 188.019531 125.984375 " fill-opacity="1" fill-rule="nonzero"/></g></g></g></g><g clip-path="url(#72d54a556d)"><g clip-path="url(#661f45545f)"><g clip-path="url(#c5ecae7863)"><g clip-path="url(#8e14b4caba)"><path fill="#db9700" d="M 171.382812 117.003906 L 186.679688 69.234375 L 174.101562 117.777344 Z M 171.382812 117.003906 " fill-opacity="1" fill-rule="nonzero"/></g></g></g></g><g clip-path="url(#a491b1588d)"><g clip-path="url(#029b9a418a)"><g clip-path="url(#1fedc1c69d)"><g clip-path="url(#706e90f220)"><path fill="#db9700" d="M 161.121094 115.917969 L 164.960938 21.671875 L 165 115.984375 Z M 161.121094 115.917969 " fill-opacity="1" fill-rule="nonzero"/></g></g></g></g><g clip-path="url(#613f781bfe)"><g clip-path="url(#e8419e8983)"><g clip-path="url(#4361ec7073)"><g clip-path="url(#1c9c4fa2e9)"><path fill="#db9700" d="M 142.960938 121.351562 L 120.035156 76.882812 L 145.441406 119.980469 Z M 142.960938 121.351562 " fill-opacity="1" fill-rule="nonzero"/></g></g></g></g><g clip-path="url(#fa52628162)"><path fill="#ffbd59" d="M 272.328125 300.597656 C 272.167969 300.496094 271.882812 300.125 270.378906 299.578125 C 268.875 299.035156 265.558594 299.035156 264.054688 298.429688 C 262.550781 297.824219 259.097656 295.007812 258.523438 294.464844 C 257.949219 293.917969 257.816406 293.859375 257.535156 294.050781 C 257.242188 294.242188 257.121094 294.371094 257.121094 294.371094 C 257.121094 294.371094 256.03125 292.050781 255.796875 291.304688 C 255.554688 290.558594 255.636719 289.367188 255.496094 289.164062 C 255.355469 288.953125 255.203125 288.921875 255.203125 288.921875 C 255.203125 288.921875 253.890625 268.113281 253.769531 266.195312 C 253.640625 264.28125 254.507812 262.996094 254.636719 262.746094 C 254.769531 262.492188 256.808594 261.082031 257.292969 261.050781 C 257.777344 261.019531 260.199219 261.273438 260.492188 261.210938 C 260.785156 261.152344 261.511719 260.769531 261.417969 260.503906 C 261.320312 260.253906 259.371094 243.109375 259.25 242.632812 C 259.117188 242.148438 258.503906 236.085938 258.503906 236.085938 C 258.503906 236.085938 258.9375 235.75 258.90625 235.488281 C 258.875 235.238281 257.210938 227.171875 256.988281 226.183594 C 256.765625 225.195312 256.886719 223.339844 256.886719 223.339844 C 256.886719 223.339844 259.332031 230.777344 259.492188 231.359375 C 259.652344 231.957031 259.765625 232.734375 259.765625 232.734375 C 259.765625 232.734375 259.542969 233.226562 259.574219 233.53125 C 259.601562 233.832031 259.785156 234.851562 259.867188 234.921875 C 259.945312 234.984375 260.1875 235.09375 260.1875 235.09375 C 260.1875 235.09375 260.300781 236.355469 260.25 236.882812 C 260.199219 237.40625 260.277344 237.949219 260.277344 237.949219 L 260.300781 238.222656 C 260.300781 238.222656 259.816406 237.960938 259.625 237.921875 C 259.429688 237.878906 259.199219 238.171875 259.1875 238.363281 C 259.179688 238.554688 259.792969 239.484375 259.792969 239.484375 C 259.792969 239.484375 259.5625 239.523438 259.460938 239.617188 C 259.359375 239.71875 259.269531 240.082031 259.402344 240.324219 C 259.53125 240.566406 260.007812 241.097656 260.097656 241.21875 C 260.1875 241.339844 260.773438 241.59375 260.984375 241.703125 C 261.199219 241.816406 261.621094 242.109375 261.53125 242.109375 C 261.441406 242.117188 260.621094 242.128906 260.429688 242.210938 C 260.238281 242.300781 260.136719 242.5625 260.390625 242.84375 C 260.640625 243.136719 261.914062 243.035156 262.367188 243.117188 C 262.832031 243.199219 263.539062 243.007812 264.175781 242.84375 C 264.808594 242.683594 265.265625 240.957031 265.648438 240.554688 C 266.03125 240.152344 266.898438 239.617188 266.9375 239.183594 C 266.988281 238.75 264.527344 234.722656 264.527344 234.722656 C 264.527344 234.722656 264.738281 234.277344 264.738281 234.167969 C 264.738281 234.054688 264.183594 231.59375 263.972656 231.492188 C 263.761719 231.402344 263.316406 231.492188 263.316406 231.492188 C 263.316406 231.492188 261.894531 220.714844 261.449219 218.988281 C 261.003906 217.261719 260.300781 212.398438 260.300781 212.398438 L 260.742188 211.613281 C 260.742188 211.613281 263.589844 212.632812 264.265625 212.734375 C 264.941406 212.832031 266.070312 210.511719 266.285156 209.199219 C 266.496094 207.886719 266.222656 206.929688 266.222656 206.929688 L 263.628906 205.859375 C 263.628906 205.859375 263.933594 205.566406 264.113281 205.394531 C 264.285156 205.222656 264.304688 204.628906 264.253906 204.527344 C 264.203125 204.4375 261.378906 203.214844 261.378906 203.214844 C 261.378906 203.214844 262.003906 200.722656 262.257812 199.3125 C 262.507812 197.90625 262.316406 194.195312 262.386719 192.851562 C 262.449219 191.511719 262.328125 189.652344 262.578125 189.210938 C 262.832031 188.765625 261.753906 187.292969 261.753906 187.292969 C 261.753906 187.292969 261.238281 185.566406 261.269531 184.929688 C 261.296875 184.292969 261.046875 183.527344 260.5 183.144531 C 259.957031 182.761719 256.019531 180.460938 255.636719 179.402344 C 255.253906 178.339844 255.253906 177.898438 255.253906 177.898438 C 255.253906 177.898438 256.433594 176.230469 256.789062 176.039062 C 257.140625 175.847656 259.25 176.835938 259.855469 177.101562 C 260.460938 177.351562 261.902344 176.617188 262.1875 176.140625 C 262.480469 175.667969 262.085938 174.476562 262.246094 174.164062 C 262.410156 173.839844 262.800781 173.878906 262.964844 173.597656 C 263.125 173.316406 262.984375 172.921875 262.984375 172.921875 C 262.984375 172.921875 263.257812 172.730469 263.46875 172.640625 C 263.679688 172.539062 263.5 172.304688 263.5 171.84375 C 263.5 171.378906 263.640625 171.214844 263.640625 171.214844 C 263.640625 171.214844 264.496094 170.933594 264.890625 170.730469 C 265.292969 170.519531 265.316406 170.136719 264.992188 169.863281 C 264.667969 169.589844 263.207031 167.070312 263.164062 166.746094 C 263.113281 166.421875 263.910156 165.03125 263.660156 163.921875 C 263.40625 162.800781 261.964844 159.824219 261.875 159.632812 C 261.773438 159.441406 261.773438 159.085938 261.773438 159.085938 C 261.773438 159.085938 263.085938 157.886719 263.769531 157.148438 C 264.457031 156.414062 264.859375 155.484375 264.394531 155.203125 C 263.933594 154.917969 259.625 156.695312 259.625 156.695312 C 259.625 156.695312 255.757812 152.699219 255.304688 152.375 C 254.859375 152.050781 251.117188 152.152344 248.238281 154.453125 C 245.363281 156.753906 242.570312 160.691406 242.546875 161.296875 C 242.527344 161.902344 245.332031 166.695312 245.523438 167.269531 C 245.71875 167.847656 244.152344 170.984375 243.699219 171.589844 C 243.253906 172.195312 242.164062 173.375 242.769531 173.34375 C 243.246094 173.324219 245.070312 172.417969 245.839844 172.023438 C 245.746094 172.105469 245.636719 172.175781 245.515625 172.234375 C 245.605469 172.207031 245.757812 172.132812 245.917969 172.023438 C 245.828125 172.164062 245.71875 172.328125 245.574219 172.488281 C 245.535156 172.507812 245.496094 172.527344 245.445312 172.539062 C 245.476562 172.539062 245.503906 172.527344 245.546875 172.519531 C 245.496094 172.578125 245.433594 172.640625 245.375 172.699219 C 245.433594 172.660156 245.515625 172.597656 245.617188 172.496094 C 245.6875 172.476562 245.765625 172.4375 245.847656 172.375 C 245.847656 172.398438 245.839844 172.417969 245.839844 172.449219 C 245.789062 172.457031 245.738281 172.46875 245.6875 172.476562 L 245.667969 172.507812 C 245.585938 172.628906 245.515625 172.761719 245.464844 172.890625 C 245.425781 172.902344 245.394531 172.921875 245.355469 172.933594 C 245.382812 172.921875 245.414062 172.921875 245.453125 172.910156 C 245.433594 172.953125 245.425781 173.003906 245.402344 173.042969 C 245.28125 173.152344 245.132812 173.265625 244.941406 173.355469 C 245.03125 173.335938 245.191406 173.273438 245.375 173.164062 C 245.3125 173.375 245.273438 173.558594 245.253906 173.667969 C 245.332031 173.4375 245.394531 173.246094 245.464844 173.09375 L 245.503906 173.0625 C 245.414062 173.324219 245.375 173.558594 245.355469 173.699219 L 245.375 173.628906 C 245.355469 173.699219 245.332031 173.769531 245.324219 173.820312 C 245.222656 173.902344 245.113281 173.980469 244.992188 174.03125 C 245.0625 174.023438 245.171875 173.960938 245.304688 173.878906 C 245.304688 173.878906 245.304688 173.890625 245.304688 173.890625 C 245.304688 173.890625 245.304688 173.878906 245.304688 173.878906 C 245.394531 173.820312 245.484375 173.75 245.585938 173.660156 C 245.523438 173.75 245.464844 173.851562 245.402344 173.949219 C 245.445312 173.902344 245.503906 173.828125 245.566406 173.75 C 245.445312 174.011719 245.34375 174.234375 245.273438 174.375 C 245.496094 174.042969 245.617188 173.757812 245.746094 173.515625 L 245.796875 173.464844 C 245.65625 173.78125 245.546875 174.042969 245.453125 174.234375 C 245.425781 174.242188 245.394531 174.253906 245.375 174.265625 C 245.394531 174.265625 245.425781 174.253906 245.453125 174.242188 C 245.433594 174.292969 245.402344 174.34375 245.394531 174.386719 L 245.453125 174.285156 C 245.363281 174.433594 245.3125 174.554688 245.171875 174.667969 C 245.292969 174.585938 245.332031 174.527344 245.382812 174.464844 C 245.433594 174.40625 245.464844 174.34375 245.503906 174.292969 C 245.523438 174.265625 245.535156 174.242188 245.554688 174.214844 C 245.585938 174.203125 245.605469 174.191406 245.636719 174.171875 C 245.28125 174.738281 244.898438 175.234375 244.992188 175.496094 C 245.121094 175.847656 245.089844 176.171875 245.089844 176.171875 C 245.089844 176.171875 243.878906 176.554688 243.265625 176.261719 C 242.660156 175.980469 240.863281 175.9375 238.058594 176.554688 C 235.242188 177.160156 232.878906 178.796875 232.394531 179.976562 C 231.910156 181.15625 231.851562 181.800781 231.851562 181.800781 C 231.851562 181.800781 228.875 186.886719 228.785156 187.242188 C 228.683594 187.59375 225.644531 193.378906 225.585938 193.570312 C 225.523438 193.761719 223.777344 192.117188 223.121094 191.570312 C 222.464844 191.027344 222.4375 191.015625 221.800781 191.136719 C 221.164062 191.269531 221.003906 191.742188 220.902344 192.417969 C 220.800781 193.09375 221.589844 193.890625 221.882812 194.175781 C 222.171875 194.46875 222.375 194.859375 222.375 194.859375 C 222.375 194.859375 217.933594 194.960938 216.84375 196.304688 C 215.753906 197.644531 216.332031 198.925781 216.019531 199.433594 C 215.695312 199.945312 212.789062 201.320312 212.273438 202.367188 C 211.757812 203.429688 211.09375 209.816406 211.40625 211.1875 C 211.730469 212.5625 212.171875 213.78125 212.203125 214.578125 C 212.234375 215.375 212.011719 215.507812 212.042969 216.4375 C 212.074219 217.363281 211.941406 220.339844 213.605469 224.429688 C 215.269531 228.527344 215.65625 231.460938 216.351562 232.480469 C 217.058594 233.5 217.5 233.691406 217.5 233.691406 C 217.5 233.691406 217.136719 235.285156 217.097656 235.742188 C 217.066406 236.183594 217.160156 236.617188 217.351562 236.8125 C 217.542969 237.003906 217.753906 236.902344 217.875 236.972656 C 218.007812 237.03125 218.320312 237.457031 218.582031 237.546875 L 218.964844 237.6875 C 218.964844 237.6875 219.265625 238.152344 219.722656 238.527344 L 199.78125 265.824219 C 199.78125 265.824219 196.957031 263.503906 196.664062 263.089844 C 196.371094 262.675781 194.078125 260.769531 193.402344 260.382812 C 192.726562 260 192.546875 259.859375 192.546875 259.859375 L 191.71875 259.273438 C 191.71875 259.273438 191.214844 258.527344 190.910156 258.539062 C 190.597656 258.546875 184.410156 263.097656 183.613281 263.746094 C 182.816406 264.390625 181.816406 264.804688 181.816406 264.804688 C 181.816406 264.804688 181.082031 265.15625 180.203125 266.066406 C 179.324219 266.972656 178.316406 268.035156 178.144531 268.859375 C 177.972656 269.6875 177.882812 269.71875 177.882812 269.71875 C 177.882812 269.71875 162.269531 289.597656 161.503906 290.769531 C 160.738281 291.949219 160.738281 293.980469 160.738281 294.65625 C 160.738281 295.332031 163.058594 296.835938 163.058594 296.835938 C 163.058594 296.835938 163.058594 297.289062 163.1875 297.519531 C 163.320312 297.753906 164.257812 298.488281 164.449219 298.507812 C 164.640625 298.519531 164.875 298.507812 164.875 298.507812 L 168.035156 301.445312 C 168.035156 301.445312 167.933594 301.636719 168.105469 301.949219 C 168.277344 302.261719 169.265625 303.070312 169.265625 303.070312 C 169.265625 303.070312 168.871094 303.839844 169.101562 304.96875 C 169.335938 306.097656 170.425781 307.058594 171.292969 307.15625 C 172.160156 307.257812 172.796875 307.761719 173.703125 306.167969 C 174.613281 304.585938 173.996094 303.695312 173.996094 303.695312 L 179.023438 298.023438 L 179.285156 297.640625 C 179.285156 297.640625 180.164062 297.601562 180.738281 297.277344 C 181.3125 296.957031 181.796875 296.378906 181.828125 295.703125 C 181.859375 295.027344 181.566406 294.261719 181.566406 294.261719 C 181.566406 294.261719 201.648438 268.738281 201.828125 268.417969 C 202 268.09375 202.113281 267.914062 202.050781 267.8125 C 201.992188 267.710938 201.113281 266.84375 201.113281 266.84375 L 220.882812 239.019531 C 221.558594 239.113281 222.0625 239.019531 222.0625 239.019531 C 222.0625 239.019531 222.003906 239.65625 222.578125 240.300781 C 223.152344 240.9375 223.566406 240.847656 223.636719 240.332031 C 223.699219 239.816406 223.738281 237.546875 223.699219 236.175781 C 223.667969 234.800781 223.796875 234.609375 223.796875 234.609375 C 223.796875 234.609375 224.789062 235.09375 224.980469 235.09375 C 225.171875 235.09375 226.957031 236.054688 227.886719 235.570312 C 228.8125 235.09375 229.550781 234.640625 229.550781 234.640625 C 229.550781 234.640625 229.519531 239.152344 229.460938 240.808594 C 229.398438 242.472656 230.289062 243.550781 230.289062 244.257812 C 230.289062 244.964844 229.773438 244.894531 229.652344 246.113281 C 229.519531 247.324219 229.589844 248.546875 229.902344 249.503906 C 230.214844 250.464844 230.347656 250.273438 230.539062 251.484375 C 230.730469 252.695312 230.480469 253.078125 230.480469 253.078125 C 230.480469 253.078125 230.226562 253.90625 229.582031 255.570312 C 228.945312 257.234375 229.226562 257.519531 229.066406 258.316406 C 228.90625 259.113281 229.003906 259.949219 229.003906 259.949219 C 229.003906 259.949219 223.859375 267.589844 222.707031 269.890625 C 221.558594 272.191406 220.570312 277.691406 219.671875 280.980469 C 218.773438 284.269531 217.207031 288.8125 217.148438 289.054688 C 217.085938 289.296875 216.90625 289.265625 216.816406 289.328125 C 216.714844 289.386719 215.554688 291.847656 215.34375 292.203125 C 215.128906 292.554688 215.121094 292.605469 215.121094 292.605469 C 215.121094 292.605469 215.199219 292.363281 214.566406 292.6875 C 213.929688 293.011719 213.988281 293.472656 213.65625 294.242188 C 213.324219 295.007812 212.527344 296.542969 212.335938 296.894531 C 212.144531 297.25 212.203125 297.722656 212.363281 298.023438 C 212.527344 298.328125 214.414062 301.667969 215.402344 302.40625 C 216.390625 303.140625 218.1875 305.632812 219.339844 306.914062 C 220.488281 308.199219 226.472656 309.539062 228.773438 309.539062 C 231.074219 309.539062 232.324219 308.640625 232.417969 308.167969 C 232.515625 307.683594 232.164062 306.792969 232.164062 306.792969 C 232.164062 306.792969 232.164062 306.382812 231.527344 305.804688 C 230.894531 305.230469 229.359375 305.007812 228.429688 304.082031 C 227.503906 303.152344 225.878906 301.234375 225.039062 299.699219 C 224.210938 298.167969 223.535156 298.105469 223.789062 296.886719 C 224.039062 295.675781 224.425781 295.21875 223.890625 294.835938 C 223.34375 294.453125 223.0625 294.421875 223.0625 294.421875 C 223.0625 294.421875 223.164062 292.980469 223.386719 292.0625 C 223.605469 291.132812 223.796875 290.972656 223.636719 290.6875 C 223.476562 290.40625 224.3125 287.296875 227.160156 281.988281 C 230.003906 276.683594 234.03125 268.335938 234.929688 267.347656 C 235.828125 266.359375 237.835938 265.328125 238.703125 264.085938 C 239.570312 262.835938 239.722656 262.109375 239.824219 261.949219 C 239.925781 261.785156 241.902344 262.65625 242.699219 262.65625 C 243.496094 262.65625 244.042969 262.492188 244.042969 262.492188 C 244.042969 262.492188 245.636719 257.984375 245.636719 258.46875 C 245.636719 258.953125 244.386719 262.179688 244.648438 262.179688 C 244.910156 262.179688 245.445312 262.34375 245.445312 262.34375 C 245.445312 262.34375 244.203125 269.164062 244.394531 272.082031 C 244.585938 274.988281 246.25 278.347656 247.210938 281.03125 C 248.167969 283.714844 249.148438 289.214844 249.167969 289.648438 C 249.1875 290.082031 249.179688 290.71875 249.179688 290.71875 C 249.179688 290.71875 248.9375 290.679688 248.894531 290.851562 C 248.855469 291.023438 248.855469 291.292969 248.855469 291.292969 L 249.148438 295.148438 C 249.148438 295.148438 248.796875 295.25 248.601562 295.785156 C 248.410156 296.328125 248.542969 296.269531 248.3125 297.066406 C 248.089844 297.863281 247.828125 298.851562 247.828125 299.234375 C 247.828125 299.621094 247.886719 300.035156 247.886719 300.035156 C 247.886719 300.035156 247.753906 300.710938 247.917969 301.09375 C 248.078125 301.476562 251.945312 302.40625 254.40625 302.535156 C 256.867188 302.667969 257.28125 302.445312 258.945312 302.890625 C 260.613281 303.332031 263.328125 304.171875 266.273438 304.007812 C 269.210938 303.847656 271.90625 302.859375 272.378906 302.285156 C 272.8125 301.6875 272.488281 300.699219 272.328125 300.597656 Z M 245.847656 172.449219 C 245.859375 172.417969 245.878906 172.386719 245.886719 172.355469 C 245.898438 172.347656 245.917969 172.335938 245.929688 172.328125 C 245.917969 172.367188 245.910156 172.40625 245.910156 172.449219 C 245.890625 172.457031 245.867188 172.457031 245.847656 172.46875 C 245.847656 172.457031 245.847656 172.457031 245.847656 172.449219 Z M 245.949219 172.226562 C 245.949219 172.226562 245.9375 172.234375 245.9375 172.234375 C 245.949219 172.226562 245.949219 172.207031 245.960938 172.195312 C 245.960938 172.207031 245.949219 172.214844 245.949219 172.226562 Z M 246.070312 172.386719 C 246.058594 172.386719 246.050781 172.398438 246.039062 172.40625 C 246.058594 172.367188 246.082031 172.335938 246.089844 172.296875 C 246.082031 172.328125 246.070312 172.355469 246.070312 172.386719 Z M 245.597656 173.132812 C 245.617188 173.101562 245.636719 173.074219 245.65625 173.042969 C 245.707031 172.992188 245.765625 172.933594 245.839844 172.851562 C 245.839844 172.859375 245.839844 172.871094 245.839844 172.871094 C 245.816406 172.902344 245.796875 172.933594 245.777344 172.960938 L 245.839844 172.890625 C 245.746094 173.011719 245.644531 173.113281 245.574219 173.195312 C 245.574219 173.175781 245.585938 173.152344 245.597656 173.132812 Z M 245.839844 172.882812 Z M 245.980469 172.761719 L 245.929688 172.882812 C 245.898438 172.921875 245.878906 172.953125 245.847656 172.980469 L 245.878906 172.902344 C 245.910156 172.859375 245.949219 172.8125 245.980469 172.761719 Z M 245.9375 173.476562 C 245.949219 173.457031 245.960938 173.445312 245.96875 173.425781 C 245.96875 173.445312 245.960938 173.464844 245.960938 173.488281 C 245.949219 173.515625 245.9375 173.539062 245.929688 173.566406 C 245.910156 173.617188 245.878906 173.667969 245.859375 173.71875 C 245.867188 173.667969 245.878906 173.617188 245.886719 173.566406 Z M 245.617188 172.476562 C 245.6875 172.398438 245.765625 172.316406 245.847656 172.207031 C 245.839844 172.253906 245.828125 172.296875 245.816406 172.335938 C 245.757812 172.398438 245.695312 172.4375 245.617188 172.476562 Z M 245.332031 173.800781 C 245.324219 173.808594 245.304688 173.820312 245.28125 173.839844 C 245.394531 173.566406 245.476562 173.367188 245.554688 173.203125 C 245.65625 173.125 245.746094 173.042969 245.816406 172.960938 C 245.808594 172.992188 245.808594 173.011719 245.796875 173.042969 C 245.6875 173.175781 245.597656 173.273438 245.523438 173.355469 C 245.617188 173.273438 245.695312 173.195312 245.777344 173.113281 C 245.757812 173.164062 245.746094 173.214844 245.71875 173.265625 C 245.765625 173.183594 245.789062 173.132812 245.808594 173.082031 C 245.828125 173.0625 245.839844 173.042969 245.859375 173.023438 L 245.746094 173.265625 C 245.71875 173.304688 245.675781 173.34375 245.65625 173.375 L 245.738281 173.304688 C 245.605469 173.445312 245.484375 173.558594 245.402344 173.628906 C 245.515625 173.546875 245.617188 173.464844 245.707031 173.386719 L 245.65625 173.496094 C 245.554688 173.597656 245.453125 173.699219 245.332031 173.800781 Z M 245.523438 174.191406 C 245.566406 174.121094 245.605469 174.0625 245.636719 174 L 245.816406 173.679688 C 245.808594 173.730469 245.808594 173.769531 245.796875 173.808594 C 245.777344 173.851562 245.746094 173.902344 245.726562 173.941406 C 245.675781 174.011719 245.636719 174.082031 245.585938 174.144531 C 245.605469 174.121094 245.625 174.101562 245.644531 174.082031 C 245.636719 174.09375 245.636719 174.101562 245.625 174.121094 C 245.597656 174.144531 245.566406 174.171875 245.523438 174.191406 Z M 245.523438 174.191406 " fill-opacity="1" fill-rule="nonzero"/></g><g fill="#ff914d" fill-opacity="1"><g transform="translate(175.459064, 328.00396)"><g><path d="M 13.46875 -28.015625 C 13.445312 -23.554688 13.414062 -14.695312 13.375 -1.4375 L 13.375 -1.15625 C 13.375 -1.050781 13.359375 -0.953125 13.328125 -0.859375 C 13.296875 -0.765625 13.25 -0.679688 13.1875 -0.609375 C 13.144531 -0.515625 13.082031 -0.4375 13 -0.375 C 12.9375 -0.3125 12.859375 -0.253906 12.765625 -0.203125 C 12.671875 -0.160156 12.582031 -0.125 12.5 -0.09375 L 12.359375 -0.046875 L 10.640625 -0.046875 C 10.546875 -0.046875 10.445312 -0.0507812 10.34375 -0.0625 L 10.0625 -0.15625 C 9.976562 -0.207031 9.898438 -0.265625 9.828125 -0.328125 C 9.753906 -0.398438 9.6875 -0.476562 9.625 -0.5625 C 9.59375 -0.59375 9.5625 -0.628906 9.53125 -0.671875 L 9.484375 -0.8125 C 8.722656 -2.757812 7.578125 -5.679688 6.046875 -9.578125 C 5.828125 -10.054688 5.550781 -10.203125 5.21875 -10.015625 C 4.875 -9.828125 4.71875 -9.554688 4.75 -9.203125 L 4.75 11.78125 C 4.6875 12.175781 4.53125 12.457031 4.28125 12.625 C 4.113281 12.75 3.90625 12.8125 3.65625 12.8125 C 3.582031 12.8125 3.5 12.804688 3.40625 12.796875 C 3.09375 12.734375 2.847656 12.625 2.671875 12.46875 C 2.484375 12.3125 2.390625 12.113281 2.390625 11.875 C 2.398438 5.738281 2.40625 -3.457031 2.40625 -15.71875 C 2.394531 -15.820312 2.394531 -15.921875 2.40625 -16.015625 C 2.40625 -16.117188 2.421875 -16.21875 2.453125 -16.3125 C 2.484375 -16.40625 2.523438 -16.492188 2.578125 -16.578125 C 2.640625 -16.671875 2.707031 -16.742188 2.78125 -16.796875 C 2.84375 -16.859375 2.921875 -16.914062 3.015625 -16.96875 C 3.109375 -17.007812 3.203125 -17.046875 3.296875 -17.078125 C 3.335938 -17.097656 3.382812 -17.109375 3.4375 -17.109375 C 3.476562 -17.117188 3.519531 -17.125 3.5625 -17.125 L 4.78125 -17.125 C 4.863281 -17.125 4.953125 -17.109375 5.046875 -17.078125 C 5.160156 -17.066406 5.253906 -17.046875 5.328125 -17.015625 C 5.421875 -16.960938 5.503906 -16.898438 5.578125 -16.828125 L 5.796875 -16.625 C 5.828125 -16.59375 5.847656 -16.550781 5.859375 -16.5 C 5.890625 -16.457031 5.914062 -16.410156 5.9375 -16.359375 C 6.75 -14.265625 7.976562 -11.125 9.625 -6.9375 C 9.769531 -6.570312 10.039062 -6.367188 10.4375 -6.328125 C 10.820312 -6.285156 11.019531 -6.546875 11.03125 -7.109375 C 11.050781 -11.742188 11.078125 -18.691406 11.109375 -27.953125 C 11.148438 -28.265625 11.28125 -28.519531 11.5 -28.71875 C 11.695312 -28.914062 11.972656 -29.015625 12.328125 -29.015625 L 12.375 -29.015625 C 12.71875 -29.015625 12.984375 -28.914062 13.171875 -28.71875 C 13.367188 -28.5 13.46875 -28.265625 13.46875 -28.015625 Z M 15 -19.671875 C 15.007812 -19.671875 15.023438 -19.664062 15.046875 -19.65625 C 15.054688 -19.65625 15.070312 -19.644531 15.09375 -19.625 C 15.101562 -19.613281 15.117188 -19.59375 15.140625 -19.5625 C 15.140625 -19.550781 15.144531 -19.535156 15.15625 -19.515625 L 15.15625 -0.875 C 15.15625 -0.769531 15.132812 -0.578125 15.09375 -0.296875 C 15.039062 -0.0234375 14.9375 0.265625 14.78125 0.578125 C 14.632812 0.890625 14.394531 1.175781 14.0625 1.4375 C 13.738281 1.6875 13.316406 1.8125 12.796875 1.8125 L 10.171875 1.8125 C 9.742188 1.8125 9.390625 1.738281 9.109375 1.59375 C 8.828125 1.457031 8.601562 1.28125 8.4375 1.0625 C 8.269531 0.863281 8.140625 0.65625 8.046875 0.4375 C 7.953125 0.21875 7.863281 0.0234375 7.78125 -0.140625 L 7.765625 -0.15625 L 7.765625 -0.1875 L 5.75 -5.40625 C 5.726562 -5.414062 5.71875 -5.429688 5.71875 -5.453125 L 5.71875 -5.515625 C 5.71875 -5.535156 5.726562 -5.550781 5.75 -5.5625 C 5.75 -5.59375 5.753906 -5.613281 5.765625 -5.625 C 5.765625 -5.644531 5.773438 -5.660156 5.796875 -5.671875 C 5.804688 -5.691406 5.828125 -5.703125 5.859375 -5.703125 C 5.878906 -5.710938 5.894531 -5.71875 5.90625 -5.71875 L 6.03125 -5.71875 C 6.0625 -5.71875 6.082031 -5.710938 6.09375 -5.703125 L 6.140625 -5.65625 C 6.160156 -5.632812 6.171875 -5.617188 6.171875 -5.609375 C 6.179688 -5.609375 6.1875 -5.597656 6.1875 -5.578125 L 6.1875 -5.5625 C 6.632812 -4.414062 7.304688 -2.691406 8.203125 -0.390625 L 8.203125 -0.375 L 8.234375 -0.34375 C 8.328125 -0.15625 8.410156 0.0351562 8.484375 0.234375 C 8.578125 0.429688 8.6875 0.609375 8.8125 0.765625 C 8.9375 0.921875 9.101562 1.050781 9.3125 1.15625 C 9.519531 1.269531 9.804688 1.328125 10.171875 1.328125 L 12.796875 1.328125 C 13.222656 1.328125 13.554688 1.222656 13.796875 1.015625 C 14.035156 0.828125 14.21875 0.613281 14.34375 0.375 C 14.488281 0.113281 14.578125 -0.140625 14.609375 -0.390625 C 14.648438 -0.648438 14.671875 -0.8125 14.671875 -0.875 L 14.671875 -19.515625 C 14.671875 -19.535156 14.675781 -19.550781 14.6875 -19.5625 C 14.707031 -19.570312 14.71875 -19.585938 14.71875 -19.609375 L 14.765625 -19.65625 C 14.773438 -19.664062 14.796875 -19.671875 14.828125 -19.671875 C 14.828125 -19.691406 14.835938 -19.703125 14.859375 -19.703125 L 14.921875 -19.703125 C 14.953125 -19.703125 14.976562 -19.691406 15 -19.671875 Z M 15 -19.671875 "/></g></g><g transform="translate(191.131162, 328.00396)"><g><path d="M 3.5625 -17.15625 C 4.695312 -17.132812 6.957031 -17.125 10.34375 -17.125 C 10.601562 -17.113281 10.800781 -17 10.9375 -16.78125 C 11.0625 -16.5625 11.117188 -16.257812 11.109375 -15.875 C 11.078125 -15.507812 11 -15.234375 10.875 -15.046875 C 10.75 -14.859375 10.601562 -14.765625 10.4375 -14.765625 L 5.953125 -14.765625 C 5.335938 -14.765625 4.984375 -14.617188 4.890625 -14.328125 C 4.796875 -14.035156 4.75 -13.765625 4.75 -13.515625 L 4.75 -11.125 C 4.75 -10.476562 4.894531 -10.109375 5.1875 -10.015625 C 5.46875 -9.929688 5.691406 -9.890625 5.859375 -9.890625 L 9.015625 -9.890625 C 9.265625 -9.890625 9.453125 -9.742188 9.578125 -9.453125 C 9.703125 -9.160156 9.75 -8.851562 9.71875 -8.53125 C 9.695312 -8.269531 9.632812 -8.035156 9.53125 -7.828125 C 9.40625 -7.617188 9.234375 -7.519531 9.015625 -7.53125 L 5.84375 -7.53125 C 5.28125 -7.53125 4.960938 -7.382812 4.890625 -7.09375 C 4.796875 -6.8125 4.75 -6.535156 4.75 -6.265625 L 4.75 -3.609375 C 4.75 -2.992188 4.890625 -2.640625 5.171875 -2.546875 C 5.441406 -2.472656 5.671875 -2.4375 5.859375 -2.4375 L 10.40625 -2.4375 C 10.925781 -2.375 11.1875 -2.007812 11.1875 -1.34375 L 11.1875 -1.203125 C 11.144531 -0.441406 10.914062 -0.0625 10.5 -0.0625 C 9 -0.0625 6.757812 -0.0703125 3.78125 -0.09375 C 3.6875 -0.0703125 3.59375 -0.0625 3.5 -0.0625 C 3.394531 -0.0820312 3.296875 -0.109375 3.203125 -0.140625 C 3.109375 -0.171875 3.019531 -0.207031 2.9375 -0.25 C 2.84375 -0.3125 2.769531 -0.375 2.71875 -0.4375 C 2.65625 -0.519531 2.597656 -0.609375 2.546875 -0.703125 C 2.503906 -0.785156 2.46875 -0.867188 2.4375 -0.953125 C 2.414062 -0.992188 2.398438 -1.046875 2.390625 -1.109375 L 2.390625 -1.25 C 2.398438 -4.570312 2.40625 -9.5625 2.40625 -16.21875 C 2.4375 -16.3125 2.476562 -16.40625 2.53125 -16.5 C 2.570312 -16.59375 2.625 -16.671875 2.6875 -16.734375 C 2.75 -16.804688 2.828125 -16.867188 2.921875 -16.921875 C 2.992188 -16.984375 3.078125 -17.035156 3.171875 -17.078125 C 3.222656 -17.097656 3.296875 -17.113281 3.390625 -17.125 C 3.460938 -17.144531 3.492188 -17.15625 3.484375 -17.15625 L 3.453125 -17.15625 C 3.441406 -17.132812 3.453125 -17.125 3.484375 -17.125 C 3.523438 -17.144531 3.550781 -17.15625 3.5625 -17.15625 Z M 8.203125 -18.796875 L 8.328125 -18.796875 L 8.375 -18.75 L 8.40625 -18.703125 L 8.453125 -18.65625 L 8.453125 -18.5625 C 8.472656 -18.5625 8.472656 -18.554688 8.453125 -18.546875 L 8.453125 -18.46875 C 8.441406 -18.457031 8.4375 -18.441406 8.4375 -18.421875 L 8.390625 -18.375 C 8.378906 -18.363281 8.363281 -18.359375 8.34375 -18.359375 C 8.332031 -18.335938 8.3125 -18.328125 8.28125 -18.328125 C 8.28125 -18.316406 8.269531 -18.3125 8.25 -18.3125 L 3.015625 -18.3125 C 2.828125 -18.3125 2.632812 -18.28125 2.4375 -18.21875 C 2.21875 -18.144531 2.023438 -18.015625 1.859375 -17.828125 C 1.671875 -17.648438 1.515625 -17.410156 1.390625 -17.109375 C 1.265625 -16.796875 1.203125 -16.398438 1.203125 -15.921875 L 1.203125 -3.3125 C 1.203125 -3.28125 1.195312 -3.257812 1.1875 -3.25 C 1.1875 -3.226562 1.175781 -3.210938 1.15625 -3.203125 L 1.109375 -3.15625 C 1.097656 -3.132812 1.082031 -3.125 1.0625 -3.125 C 1.050781 -3.113281 1.03125 -3.109375 1 -3.109375 L 0.875 -3.109375 L 0.828125 -3.15625 C 0.816406 -3.15625 0.800781 -3.160156 0.78125 -3.171875 C 0.769531 -3.191406 0.765625 -3.207031 0.765625 -3.21875 C 0.742188 -3.25 0.734375 -3.273438 0.734375 -3.296875 C 0.722656 -3.296875 0.71875 -3.300781 0.71875 -3.3125 L 0.71875 -15.921875 C 0.71875 -16.453125 0.796875 -16.898438 0.953125 -17.265625 C 1.085938 -17.640625 1.269531 -17.941406 1.5 -18.171875 C 1.71875 -18.398438 1.96875 -18.5625 2.25 -18.65625 C 2.507812 -18.75 2.765625 -18.796875 3.015625 -18.796875 Z M 8.203125 -18.796875 "/></g></g><g transform="translate(205.435429, 328.00396)"><g><path d="M 11.171875 -15.15625 C 11.234375 -15.0625 11.28125 -14.976562 11.3125 -14.90625 C 11.351562 -14.8125 11.382812 -14.710938 11.40625 -14.609375 C 11.414062 -14.515625 11.414062 -14.421875 11.40625 -14.328125 C 11.382812 -14.210938 11.359375 -14.109375 11.328125 -14.015625 C 11.296875 -13.929688 11.25 -13.847656 11.1875 -13.765625 C 11.132812 -13.691406 11.066406 -13.625 10.984375 -13.5625 C 10.921875 -13.476562 10.84375 -13.421875 10.75 -13.390625 C 10.65625 -13.347656 10.5625 -13.3125 10.46875 -13.28125 C 10.382812 -13.269531 10.285156 -13.265625 10.171875 -13.265625 L 9.890625 -13.296875 C 9.785156 -13.328125 9.695312 -13.375 9.625 -13.4375 C 9.539062 -13.488281 9.460938 -13.546875 9.390625 -13.609375 C 9.335938 -13.640625 9.304688 -13.675781 9.296875 -13.71875 C 9.265625 -13.769531 9.234375 -13.8125 9.203125 -13.84375 C 8.984375 -14.207031 8.757812 -14.46875 8.53125 -14.625 C 8.300781 -14.78125 7.796875 -14.859375 7.015625 -14.859375 C 6.398438 -14.859375 5.914062 -14.78125 5.5625 -14.625 C 5.207031 -14.46875 4.9375 -14.289062 4.75 -14.09375 C 4.5625 -13.875 4.429688 -13.640625 4.359375 -13.390625 C 4.273438 -13.160156 4.25 -12.929688 4.28125 -12.703125 C 4.300781 -12.648438 4.378906 -12.523438 4.515625 -12.328125 C 4.660156 -12.140625 4.898438 -11.925781 5.234375 -11.6875 C 5.578125 -11.4375 5.972656 -11.171875 6.421875 -10.890625 C 6.878906 -10.628906 7.347656 -10.359375 7.828125 -10.078125 C 8.328125 -9.804688 8.820312 -9.519531 9.3125 -9.21875 C 9.8125 -8.925781 10.269531 -8.601562 10.6875 -8.25 C 11.101562 -7.90625 11.472656 -7.503906 11.796875 -7.046875 C 12.117188 -6.597656 12.28125 -6.070312 12.28125 -5.46875 L 12.28125 -5.40625 C 12.300781 -4.90625 12.25 -4.425781 12.125 -3.96875 C 12 -3.5 11.8125 -3.066406 11.5625 -2.671875 C 11.132812 -1.921875 10.539062 -1.316406 9.78125 -0.859375 C 9.007812 -0.390625 8.175781 -0.15625 7.28125 -0.15625 C 6.644531 -0.15625 5.851562 -0.3125 4.90625 -0.625 C 3.957031 -0.9375 3.132812 -1.625 2.4375 -2.6875 C 2.375 -2.78125 2.328125 -2.875 2.296875 -2.96875 C 2.242188 -3.0625 2.210938 -3.15625 2.203125 -3.25 L 2.203125 -3.546875 C 2.210938 -3.640625 2.234375 -3.734375 2.265625 -3.828125 C 2.316406 -3.921875 2.375 -4.003906 2.4375 -4.078125 C 2.476562 -4.148438 2.539062 -4.226562 2.625 -4.3125 C 2.695312 -4.375 2.78125 -4.421875 2.875 -4.453125 C 2.96875 -4.492188 3.0625 -4.523438 3.15625 -4.546875 C 3.25 -4.578125 3.347656 -4.582031 3.453125 -4.5625 C 3.546875 -4.5625 3.640625 -4.546875 3.734375 -4.515625 C 3.828125 -4.484375 3.910156 -4.445312 3.984375 -4.40625 C 4.078125 -4.34375 4.160156 -4.28125 4.234375 -4.21875 C 4.265625 -4.1875 4.296875 -4.148438 4.328125 -4.109375 C 4.359375 -4.054688 4.382812 -4.015625 4.40625 -3.984375 C 4.863281 -3.285156 5.34375 -2.867188 5.84375 -2.734375 C 6.332031 -2.597656 6.8125 -2.53125 7.28125 -2.53125 C 8.007812 -2.53125 8.640625 -2.800781 9.171875 -3.34375 C 9.710938 -3.863281 9.976562 -4.457031 9.96875 -5.125 C 9.945312 -5.21875 9.929688 -5.28125 9.921875 -5.3125 L 9.921875 -5.421875 C 9.921875 -5.503906 9.867188 -5.628906 9.765625 -5.796875 C 9.671875 -5.984375 9.46875 -6.195312 9.15625 -6.4375 C 8.863281 -6.6875 8.5 -6.941406 8.0625 -7.203125 C 7.613281 -7.472656 7.148438 -7.742188 6.671875 -8.015625 C 6.191406 -8.296875 5.707031 -8.578125 5.21875 -8.859375 C 4.71875 -9.148438 4.253906 -9.457031 3.828125 -9.78125 C 3.390625 -10.101562 2.988281 -10.46875 2.625 -10.875 C 2.25 -11.289062 2.023438 -11.789062 1.953125 -12.375 C 1.921875 -12.5625 1.90625 -12.738281 1.90625 -12.90625 C 1.90625 -13.3125 1.96875 -13.710938 2.09375 -14.109375 C 2.257812 -14.703125 2.566406 -15.226562 3.015625 -15.6875 C 3.441406 -16.164062 4 -16.546875 4.6875 -16.828125 C 5.375 -17.109375 6.148438 -17.25 7.015625 -17.25 C 8.066406 -17.25 8.941406 -17.03125 9.640625 -16.59375 C 10.347656 -16.175781 10.859375 -15.695312 11.171875 -15.15625 Z M 8.859375 -11.875 C 8.859375 -11.851562 8.863281 -11.84375 8.875 -11.84375 C 8.894531 -11.84375 8.90625 -11.835938 8.90625 -11.828125 C 9.75 -11.265625 10.519531 -10.753906 11.21875 -10.296875 C 11.894531 -9.816406 12.46875 -9.296875 12.9375 -8.734375 C 13.414062 -8.160156 13.753906 -7.515625 13.953125 -6.796875 C 14.109375 -6.296875 14.1875 -5.722656 14.1875 -5.078125 C 14.1875 -4.765625 14.160156 -4.441406 14.109375 -4.109375 C 14.066406 -3.503906 13.867188 -2.835938 13.515625 -2.109375 C 13.171875 -1.367188 12.675781 -0.6875 12.03125 -0.0625 C 11.382812 0.550781 10.566406 1.039062 9.578125 1.40625 C 8.828125 1.707031 7.988281 1.859375 7.0625 1.859375 C 6.769531 1.859375 6.472656 1.84375 6.171875 1.8125 L 6.09375 1.8125 C 6.082031 1.789062 6.066406 1.78125 6.046875 1.78125 L 5.953125 1.6875 C 5.941406 1.675781 5.9375 1.660156 5.9375 1.640625 C 5.914062 1.628906 5.90625 1.609375 5.90625 1.578125 L 5.90625 1.53125 C 5.925781 1.5 5.9375 1.472656 5.9375 1.453125 L 5.984375 1.40625 C 5.984375 1.394531 5.988281 1.382812 6 1.375 C 6.019531 1.351562 6.046875 1.34375 6.078125 1.34375 C 6.085938 1.332031 6.101562 1.328125 6.125 1.328125 L 6.1875 1.328125 C 7.4375 1.429688 8.507812 1.304688 9.40625 0.953125 C 10.320312 0.597656 11.085938 0.132812 11.703125 -0.4375 C 12.304688 -1.007812 12.769531 -1.644531 13.09375 -2.34375 C 13.40625 -3.019531 13.59375 -3.625 13.65625 -4.15625 C 13.75 -5.15625 13.703125 -5.988281 13.515625 -6.65625 C 13.328125 -7.320312 13.015625 -7.914062 12.578125 -8.4375 C 12.148438 -8.945312 11.597656 -9.429688 10.921875 -9.890625 C 10.253906 -10.335938 9.492188 -10.847656 8.640625 -11.421875 C 8.609375 -11.421875 8.585938 -11.429688 8.578125 -11.453125 C 8.554688 -11.460938 8.546875 -11.476562 8.546875 -11.5 L 8.5 -11.546875 L 8.5 -11.6875 C 8.5 -11.695312 8.507812 -11.710938 8.53125 -11.734375 C 8.53125 -11.742188 8.535156 -11.757812 8.546875 -11.78125 L 8.59375 -11.828125 C 8.613281 -11.835938 8.628906 -11.84375 8.640625 -11.84375 C 8.660156 -11.863281 8.6875 -11.875 8.71875 -11.875 L 8.765625 -11.875 C 8.773438 -11.875 8.78125 -11.875 8.78125 -11.875 C 8.78125 -11.875 8.773438 -11.875 8.765625 -11.875 Z M 8.859375 -11.875 "/></g></g><g transform="translate(219.739696, 328.00396)"><g><path d="M 12.046875 -17.15625 C 12.734375 -17.15625 13.078125 -16.789062 13.078125 -16.0625 L 13.078125 -16.015625 C 13.078125 -15.273438 12.867188 -14.878906 12.453125 -14.828125 C 12.390625 -14.828125 12.332031 -14.820312 12.28125 -14.8125 C 12.238281 -14.789062 12.191406 -14.78125 12.140625 -14.78125 L 10.015625 -14.78125 C 9.453125 -14.78125 9.132812 -14.644531 9.0625 -14.375 C 8.96875 -14.09375 8.921875 -13.8125 8.921875 -13.53125 L 8.921875 -1.375 C 8.953125 -0.488281 8.566406 -0.046875 7.765625 -0.046875 C 6.960938 -0.0546875 6.5625 -0.46875 6.5625 -1.28125 L 6.5625 -13.328125 C 6.539062 -14.003906 6.367188 -14.421875 6.046875 -14.578125 C 5.710938 -14.734375 5.441406 -14.8125 5.234375 -14.8125 L 3.3125 -14.8125 C 2.601562 -14.789062 2.238281 -15.1875 2.21875 -16 L 2.21875 -16.015625 C 2.21875 -16.773438 2.519531 -17.160156 3.125 -17.171875 L 3.171875 -17.171875 C 3.328125 -17.160156 4.125 -17.15625 5.5625 -17.15625 C 7 -17.164062 9.160156 -17.164062 12.046875 -17.15625 Z M 13.296875 -13.71875 L 13.375 -13.71875 C 13.382812 -13.707031 13.398438 -13.703125 13.421875 -13.703125 C 13.453125 -13.679688 13.472656 -13.671875 13.484375 -13.671875 C 13.503906 -13.660156 13.515625 -13.644531 13.515625 -13.625 L 13.5625 -13.578125 C 13.5625 -13.546875 13.566406 -13.523438 13.578125 -13.515625 L 13.578125 -13.4375 C 13.578125 -13.425781 13.570312 -13.410156 13.5625 -13.390625 C 13.5625 -13.378906 13.550781 -13.363281 13.53125 -13.34375 C 13.519531 -13.3125 13.503906 -13.296875 13.484375 -13.296875 L 13.4375 -13.265625 C 13.425781 -13.265625 13.410156 -13.253906 13.390625 -13.234375 L 11.546875 -13.234375 C 11.328125 -13.234375 11.15625 -13.203125 11.03125 -13.140625 C 10.925781 -13.066406 10.832031 -12.984375 10.75 -12.890625 C 10.6875 -12.796875 10.640625 -12.691406 10.609375 -12.578125 C 10.597656 -12.472656 10.59375 -12.390625 10.59375 -12.328125 L 10.59375 2.78125 C 10.59375 2.789062 10.582031 2.8125 10.5625 2.84375 C 10.5625 2.863281 10.554688 2.878906 10.546875 2.890625 L 10.5 2.9375 C 10.476562 2.957031 10.460938 2.96875 10.453125 2.96875 C 10.441406 2.976562 10.421875 2.984375 10.390625 2.984375 L 10.34375 2.984375 C 10.3125 2.984375 10.285156 2.976562 10.265625 2.96875 C 10.253906 2.96875 10.238281 2.957031 10.21875 2.9375 C 10.207031 2.9375 10.191406 2.929688 10.171875 2.921875 C 10.160156 2.898438 10.144531 2.875 10.125 2.84375 C 10.125 2.832031 10.117188 2.816406 10.109375 2.796875 L 10.109375 -12.3125 C 10.109375 -12.4375 10.125 -12.566406 10.15625 -12.703125 C 10.195312 -12.867188 10.273438 -13.03125 10.390625 -13.1875 C 10.492188 -13.34375 10.640625 -13.46875 10.828125 -13.5625 C 11.023438 -13.664062 11.265625 -13.71875 11.546875 -13.71875 Z M 13.296875 -13.71875 "/></g></g><g transform="translate(234.99449, 328.00396)"><g><path d="M 4.75 -16.0625 L 4.75 -1.328125 C 4.675781 -0.566406 4.28125 -0.1875 3.5625 -0.1875 L 3.5 -0.1875 C 2.757812 -0.195312 2.390625 -0.535156 2.390625 -1.203125 C 2.390625 -4.515625 2.394531 -9.472656 2.40625 -16.078125 C 2.457031 -16.742188 2.828125 -17.078125 3.515625 -17.078125 L 3.609375 -17.078125 C 4.367188 -17.035156 4.75 -16.695312 4.75 -16.0625 Z M 0.875 -12.046875 C 0.894531 -12.046875 0.910156 -12.039062 0.921875 -12.03125 L 0.96875 -11.984375 C 0.988281 -11.960938 1 -11.945312 1 -11.9375 C 1.007812 -11.914062 1.015625 -11.898438 1.015625 -11.890625 L 1.015625 -1.09375 C 1.015625 -1.070312 1.007812 -1.054688 1 -1.046875 C 1 -1.015625 0.988281 -0.988281 0.96875 -0.96875 L 0.921875 -0.921875 C 0.910156 -0.921875 0.894531 -0.914062 0.875 -0.90625 C 0.863281 -0.90625 0.84375 -0.894531 0.8125 -0.875 L 0.765625 -0.875 C 0.734375 -0.875 0.710938 -0.882812 0.703125 -0.90625 C 0.679688 -0.90625 0.664062 -0.910156 0.65625 -0.921875 L 0.609375 -0.96875 C 0.585938 -0.988281 0.578125 -1.003906 0.578125 -1.015625 C 0.566406 -1.035156 0.5625 -1.050781 0.5625 -1.0625 C 0.539062 -1.082031 0.53125 -1.097656 0.53125 -1.109375 L 0.53125 -11.84375 C 0.53125 -11.863281 0.539062 -11.878906 0.5625 -11.890625 C 0.5625 -11.898438 0.566406 -11.921875 0.578125 -11.953125 C 0.578125 -11.972656 0.585938 -11.988281 0.609375 -12 C 0.617188 -12.019531 0.632812 -12.03125 0.65625 -12.03125 L 0.671875 -12.046875 C 0.691406 -12.046875 0.703125 -12.054688 0.703125 -12.078125 L 0.8125 -12.078125 C 0.820312 -12.078125 0.84375 -12.066406 0.875 -12.046875 Z M 6.421875 -16.453125 C 6.453125 -16.453125 6.472656 -16.445312 6.484375 -16.4375 L 6.53125 -16.390625 C 6.53125 -16.367188 6.539062 -16.351562 6.5625 -16.34375 C 6.5625 -16.320312 6.566406 -16.304688 6.578125 -16.296875 L 6.578125 -5.5 C 6.578125 -5.476562 6.570312 -5.460938 6.5625 -5.453125 C 6.5625 -5.421875 6.550781 -5.394531 6.53125 -5.375 L 6.484375 -5.328125 C 6.472656 -5.328125 6.457031 -5.320312 6.4375 -5.3125 C 6.40625 -5.3125 6.382812 -5.300781 6.375 -5.28125 L 6.328125 -5.28125 C 6.296875 -5.28125 6.273438 -5.289062 6.265625 -5.3125 C 6.242188 -5.3125 6.226562 -5.316406 6.21875 -5.328125 L 6.125 -5.421875 C 6.125 -5.441406 6.113281 -5.457031 6.09375 -5.46875 L 6.09375 -16.296875 C 6.113281 -16.304688 6.125 -16.328125 6.125 -16.359375 L 6.171875 -16.40625 C 6.179688 -16.425781 6.195312 -16.4375 6.21875 -16.4375 C 6.21875 -16.445312 6.222656 -16.453125 6.234375 -16.453125 C 6.253906 -16.453125 6.265625 -16.460938 6.265625 -16.484375 L 6.375 -16.484375 C 6.382812 -16.484375 6.398438 -16.472656 6.421875 -16.453125 Z M 6.421875 -16.453125 "/></g></g><g transform="translate(242.135032, 328.00396)"><g><path d="M 13.421875 -16.21875 C 13.398438 -13.78125 13.367188 -8.859375 13.328125 -1.453125 C 13.335938 -1.367188 13.34375 -1.269531 13.34375 -1.15625 C 13.332031 -1.0625 13.3125 -0.96875 13.28125 -0.875 C 13.25 -0.78125 13.210938 -0.691406 13.171875 -0.609375 L 12.984375 -0.375 C 12.898438 -0.3125 12.8125 -0.253906 12.71875 -0.203125 C 12.625 -0.171875 12.539062 -0.132812 12.46875 -0.09375 C 12.425781 -0.0703125 12.375 -0.0625 12.3125 -0.0625 L 10.609375 -0.0625 C 10.503906 -0.0625 10.40625 -0.0703125 10.3125 -0.09375 C 10.21875 -0.101562 10.125 -0.132812 10.03125 -0.1875 C 9.9375 -0.226562 9.859375 -0.28125 9.796875 -0.34375 C 9.722656 -0.40625 9.65625 -0.476562 9.59375 -0.5625 C 9.550781 -0.59375 9.519531 -0.628906 9.5 -0.671875 L 9.453125 -0.8125 C 8.640625 -2.894531 7.421875 -6.007812 5.796875 -10.15625 C 5.640625 -10.507812 5.40625 -10.625 5.09375 -10.5 C 4.800781 -10.394531 4.679688 -10.171875 4.734375 -9.828125 L 4.734375 -0.875 C 4.679688 -0.644531 4.554688 -0.453125 4.359375 -0.296875 C 4.160156 -0.140625 3.878906 -0.0703125 3.515625 -0.09375 C 3.148438 -0.09375 2.867188 -0.160156 2.671875 -0.296875 C 2.460938 -0.441406 2.359375 -0.597656 2.359375 -0.765625 C 2.359375 -4.097656 2.367188 -9.085938 2.390625 -15.734375 C 2.367188 -15.828125 2.359375 -15.929688 2.359375 -16.046875 C 2.359375 -16.128906 2.375 -16.21875 2.40625 -16.3125 C 2.4375 -16.40625 2.484375 -16.5 2.546875 -16.59375 C 2.597656 -16.675781 2.660156 -16.753906 2.734375 -16.828125 C 2.804688 -16.890625 2.890625 -16.941406 2.984375 -16.984375 C 3.066406 -17.015625 3.15625 -17.054688 3.25 -17.109375 C 3.289062 -17.117188 3.335938 -17.125 3.390625 -17.125 L 4.734375 -17.125 C 4.828125 -17.125 4.925781 -17.117188 5.03125 -17.109375 C 5.125 -17.085938 5.21875 -17.054688 5.3125 -17.015625 C 5.382812 -16.984375 5.460938 -16.925781 5.546875 -16.84375 C 5.617188 -16.78125 5.6875 -16.710938 5.75 -16.640625 C 5.78125 -16.609375 5.8125 -16.570312 5.84375 -16.53125 L 5.890625 -16.390625 C 6.765625 -14.128906 8.09375 -10.742188 9.875 -6.234375 C 10.0625 -5.847656 10.300781 -5.722656 10.59375 -5.859375 C 10.875 -6.003906 11.015625 -6.242188 11.015625 -6.578125 L 11.078125 -16.046875 C 10.984375 -16.703125 11.351562 -17.046875 12.1875 -17.078125 C 13.007812 -17.109375 13.421875 -16.820312 13.421875 -16.21875 Z M 3.390625 -18.828125 L 4.734375 -18.828125 C 5.660156 -18.828125 6.335938 -18.628906 6.765625 -18.234375 C 7.203125 -17.835938 7.488281 -17.46875 7.625 -17.125 C 8.09375 -15.894531 8.796875 -14.054688 9.734375 -11.609375 L 9.734375 -11.421875 C 9.722656 -11.410156 9.71875 -11.394531 9.71875 -11.375 L 9.625 -11.28125 L 9.546875 -11.28125 C 9.535156 -11.269531 9.519531 -11.265625 9.5 -11.265625 C 9.46875 -11.265625 9.445312 -11.269531 9.4375 -11.28125 C 9.414062 -11.28125 9.398438 -11.289062 9.390625 -11.3125 C 9.367188 -11.3125 9.351562 -11.316406 9.34375 -11.328125 L 9.296875 -11.375 C 9.296875 -11.394531 9.285156 -11.40625 9.265625 -11.40625 L 9.265625 -11.453125 L 7.1875 -16.9375 C 7.0625 -17.238281 6.828125 -17.539062 6.484375 -17.84375 C 6.148438 -18.164062 5.566406 -18.328125 4.734375 -18.328125 L 3.390625 -18.328125 C 3.179688 -18.347656 2.945312 -18.316406 2.6875 -18.234375 C 2.425781 -18.179688 2.179688 -18.078125 1.953125 -17.921875 C 1.710938 -17.765625 1.519531 -17.5625 1.375 -17.3125 C 1.195312 -17.0625 1.101562 -16.738281 1.09375 -16.34375 L 1.09375 3.015625 C 1.070312 3.046875 1.0625 3.066406 1.0625 3.078125 C 1.050781 3.097656 1.046875 3.113281 1.046875 3.125 L 1 3.171875 C 0.976562 3.191406 0.960938 3.203125 0.953125 3.203125 C 0.921875 3.210938 0.894531 3.21875 0.875 3.21875 L 0.765625 3.21875 C 0.742188 3.207031 0.726562 3.203125 0.71875 3.203125 C 0.6875 3.179688 0.671875 3.164062 0.671875 3.15625 L 0.625 3.109375 C 0.625 3.085938 0.617188 3.0625 0.609375 3.03125 L 0.609375 -16.359375 C 0.617188 -16.828125 0.734375 -17.226562 0.953125 -17.5625 C 1.148438 -17.894531 1.390625 -18.148438 1.671875 -18.328125 C 1.960938 -18.515625 2.253906 -18.648438 2.546875 -18.734375 C 2.828125 -18.796875 3.082031 -18.828125 3.3125 -18.828125 Z M 3.390625 -18.828125 "/></g></g><g transform="translate(257.853498, 328.00396)"><g><path d="M 13.421875 -16.21875 C 13.398438 -13.78125 13.367188 -8.859375 13.328125 -1.453125 C 13.335938 -1.367188 13.34375 -1.269531 13.34375 -1.15625 C 13.332031 -1.0625 13.3125 -0.96875 13.28125 -0.875 C 13.25 -0.78125 13.210938 -0.691406 13.171875 -0.609375 L 12.984375 -0.375 C 12.898438 -0.3125 12.8125 -0.253906 12.71875 -0.203125 C 12.625 -0.171875 12.539062 -0.132812 12.46875 -0.09375 C 12.425781 -0.0703125 12.375 -0.0625 12.3125 -0.0625 L 10.609375 -0.0625 C 10.503906 -0.0625 10.40625 -0.0703125 10.3125 -0.09375 C 10.21875 -0.101562 10.125 -0.132812 10.03125 -0.1875 C 9.9375 -0.226562 9.859375 -0.28125 9.796875 -0.34375 C 9.722656 -0.40625 9.65625 -0.476562 9.59375 -0.5625 C 9.550781 -0.59375 9.519531 -0.628906 9.5 -0.671875 L 9.453125 -0.8125 C 8.640625 -2.894531 7.421875 -6.007812 5.796875 -10.15625 C 5.640625 -10.507812 5.40625 -10.625 5.09375 -10.5 C 4.800781 -10.394531 4.679688 -10.171875 4.734375 -9.828125 L 4.734375 -0.875 C 4.679688 -0.644531 4.554688 -0.453125 4.359375 -0.296875 C 4.160156 -0.140625 3.878906 -0.0703125 3.515625 -0.09375 C 3.148438 -0.09375 2.867188 -0.160156 2.671875 -0.296875 C 2.460938 -0.441406 2.359375 -0.597656 2.359375 -0.765625 C 2.359375 -4.097656 2.367188 -9.085938 2.390625 -15.734375 C 2.367188 -15.828125 2.359375 -15.929688 2.359375 -16.046875 C 2.359375 -16.128906 2.375 -16.21875 2.40625 -16.3125 C 2.4375 -16.40625 2.484375 -16.5 2.546875 -16.59375 C 2.597656 -16.675781 2.660156 -16.753906 2.734375 -16.828125 C 2.804688 -16.890625 2.890625 -16.941406 2.984375 -16.984375 C 3.066406 -17.015625 3.15625 -17.054688 3.25 -17.109375 C 3.289062 -17.117188 3.335938 -17.125 3.390625 -17.125 L 4.734375 -17.125 C 4.828125 -17.125 4.925781 -17.117188 5.03125 -17.109375 C 5.125 -17.085938 5.21875 -17.054688 5.3125 -17.015625 C 5.382812 -16.984375 5.460938 -16.925781 5.546875 -16.84375 C 5.617188 -16.78125 5.6875 -16.710938 5.75 -16.640625 C 5.78125 -16.609375 5.8125 -16.570312 5.84375 -16.53125 L 5.890625 -16.390625 C 6.765625 -14.128906 8.09375 -10.742188 9.875 -6.234375 C 10.0625 -5.847656 10.300781 -5.722656 10.59375 -5.859375 C 10.875 -6.003906 11.015625 -6.242188 11.015625 -6.578125 L 11.078125 -16.046875 C 10.984375 -16.703125 11.351562 -17.046875 12.1875 -17.078125 C 13.007812 -17.109375 13.421875 -16.820312 13.421875 -16.21875 Z M 3.390625 -18.828125 L 4.734375 -18.828125 C 5.660156 -18.828125 6.335938 -18.628906 6.765625 -18.234375 C 7.203125 -17.835938 7.488281 -17.46875 7.625 -17.125 C 8.09375 -15.894531 8.796875 -14.054688 9.734375 -11.609375 L 9.734375 -11.421875 C 9.722656 -11.410156 9.71875 -11.394531 9.71875 -11.375 L 9.625 -11.28125 L 9.546875 -11.28125 C 9.535156 -11.269531 9.519531 -11.265625 9.5 -11.265625 C 9.46875 -11.265625 9.445312 -11.269531 9.4375 -11.28125 C 9.414062 -11.28125 9.398438 -11.289062 9.390625 -11.3125 C 9.367188 -11.3125 9.351562 -11.316406 9.34375 -11.328125 L 9.296875 -11.375 C 9.296875 -11.394531 9.285156 -11.40625 9.265625 -11.40625 L 9.265625 -11.453125 L 7.1875 -16.9375 C 7.0625 -17.238281 6.828125 -17.539062 6.484375 -17.84375 C 6.148438 -18.164062 5.566406 -18.328125 4.734375 -18.328125 L 3.390625 -18.328125 C 3.179688 -18.347656 2.945312 -18.316406 2.6875 -18.234375 C 2.425781 -18.179688 2.179688 -18.078125 1.953125 -17.921875 C 1.710938 -17.765625 1.519531 -17.5625 1.375 -17.3125 C 1.195312 -17.0625 1.101562 -16.738281 1.09375 -16.34375 L 1.09375 3.015625 C 1.070312 3.046875 1.0625 3.066406 1.0625 3.078125 C 1.050781 3.097656 1.046875 3.113281 1.046875 3.125 L 1 3.171875 C 0.976562 3.191406 0.960938 3.203125 0.953125 3.203125 C 0.921875 3.210938 0.894531 3.21875 0.875 3.21875 L 0.765625 3.21875 C 0.742188 3.207031 0.726562 3.203125 0.71875 3.203125 C 0.6875 3.179688 0.671875 3.164062 0.671875 3.15625 L 0.625 3.109375 C 0.625 3.085938 0.617188 3.0625 0.609375 3.03125 L 0.609375 -16.359375 C 0.617188 -16.828125 0.734375 -17.226562 0.953125 -17.5625 C 1.148438 -17.894531 1.390625 -18.148438 1.671875 -18.328125 C 1.960938 -18.515625 2.253906 -18.648438 2.546875 -18.734375 C 2.828125 -18.796875 3.082031 -18.828125 3.3125 -18.828125 Z M 3.390625 -18.828125 "/></g></g></g></svg>